<svg width="1314" height="430" viewBox="0 0 1314 430" fill="none" xmlns="http://www.w3.org/2000/svg">
<path d="M234.356 426H191.28V271.771C191.28 268.759 190.677 265.947 189.473 263.337C188.368 260.726 186.812 258.467 184.804 256.559C182.896 254.551 180.637 252.995 178.026 251.89C175.415 250.786 172.604 250.233 169.591 250.233C166.579 250.233 163.768 250.786 161.157 251.89C158.546 252.995 156.237 254.551 154.229 256.559C152.321 258.467 150.815 260.726 149.71 263.337C148.606 265.947 148.054 268.759 148.054 271.771V426H104.827V271.771C104.827 268.759 104.275 265.947 103.171 263.337C102.066 260.726 100.51 258.467 98.5016 256.559C96.5939 254.551 94.3346 252.995 91.724 251.89C89.1133 250.786 86.3019 250.233 83.2896 250.233C80.2773 250.233 77.4659 250.786 74.8552 251.89C72.2446 252.995 69.9352 254.551 67.927 256.559C66.0192 258.467 64.513 260.726 63.4085 263.337C62.304 265.947 61.7518 268.759 61.7518 271.771V426H18.5255V271.771C18.5255 262.835 20.1823 254.451 23.4958 246.619C26.9097 238.686 31.5286 231.808 37.3523 225.984C43.2765 220.06 50.1545 215.441 57.9864 212.128C65.9188 208.714 74.3532 207.007 83.2896 207.007C91.3224 207.007 99.0539 208.463 106.484 211.375C113.914 214.186 120.592 218.303 126.516 223.725C132.44 218.303 139.067 214.186 146.397 211.375C153.827 208.463 161.559 207.007 169.591 207.007C178.528 207.007 186.912 208.714 194.744 212.128C202.676 215.441 209.554 220.06 215.378 225.984C221.302 231.808 225.921 238.686 229.235 246.619C232.649 254.451 234.356 262.835 234.356 271.771V426ZM317.193 220.864C317.193 224.679 316.44 228.244 314.934 231.557C313.528 234.871 311.57 237.783 309.06 240.293C306.55 242.703 303.588 244.661 300.174 246.167C296.86 247.572 293.296 248.275 289.48 248.275C285.665 248.275 282.05 247.572 278.636 246.167C275.323 244.661 272.411 242.703 269.9 240.293C267.491 237.783 265.533 234.871 264.027 231.557C262.621 228.244 261.918 224.679 261.918 220.864C261.918 217.148 262.621 213.634 264.027 210.321C265.533 206.907 267.491 203.995 269.9 201.585C272.411 199.075 275.323 197.117 278.636 195.711C282.05 194.205 285.665 193.452 289.48 193.452C293.296 193.452 296.86 194.205 300.174 195.711C303.588 197.117 306.55 199.075 309.06 201.585C311.57 203.995 313.528 206.907 314.934 210.321C316.44 213.634 317.193 217.148 317.193 220.864ZM310.114 426H268.696V264.692H310.114V426ZM382.71 426H341.593V264.692H351.533L365.089 280.356C371.716 274.332 379.196 269.713 387.53 266.5C395.965 263.186 404.75 261.529 413.888 261.529C423.728 261.529 433.016 263.437 441.751 267.253C450.487 270.968 458.118 276.139 464.645 282.766C471.171 289.293 476.292 296.974 480.007 305.81C483.823 314.546 485.731 323.884 485.731 333.824V426H444.613V333.824C444.613 329.607 443.81 325.641 442.203 321.926C440.596 318.11 438.387 314.797 435.576 311.985C432.765 309.174 429.501 306.965 425.786 305.358C422.071 303.752 418.105 302.948 413.888 302.948C409.57 302.948 405.503 303.752 401.688 305.358C397.872 306.965 394.559 309.174 391.747 311.985C388.936 314.797 386.727 318.11 385.12 321.926C383.514 325.641 382.71 329.607 382.71 333.824V426ZM579.262 386.539C580.868 387.041 582.475 387.393 584.082 387.593C585.688 387.694 587.295 387.744 588.901 387.744C592.918 387.744 596.783 387.192 600.498 386.087C604.214 384.983 607.678 383.426 610.891 381.418C614.204 379.31 617.116 376.799 619.626 373.888C622.237 370.875 624.346 367.562 625.952 363.947L656.075 394.22C652.26 399.643 647.842 404.512 642.821 408.83C637.901 413.148 632.529 416.813 626.705 419.825C620.982 422.837 614.907 425.096 608.481 426.602C602.155 428.209 595.629 429.012 588.901 429.012C577.555 429.012 566.861 426.904 556.82 422.686C546.88 418.469 538.144 412.595 530.614 405.065C523.183 397.534 517.309 388.597 512.992 378.255C508.674 367.813 506.515 356.366 506.515 343.915C506.515 331.163 508.674 319.516 512.992 308.973C517.309 298.43 523.183 289.443 530.614 282.013C538.144 274.583 546.88 268.809 556.82 264.692C566.861 260.575 577.555 258.517 588.901 258.517C595.629 258.517 602.205 259.32 608.632 260.927C615.058 262.533 621.133 264.843 626.856 267.855C632.68 270.867 638.102 274.583 643.122 279.001C648.143 283.318 652.561 288.188 656.376 293.61L579.262 386.539ZM600.348 301.743C598.44 301.04 596.532 300.589 594.625 300.388C592.817 300.187 590.909 300.087 588.901 300.087C583.278 300.087 577.957 301.141 572.936 303.249C568.016 305.258 563.698 308.17 559.983 311.985C556.369 315.801 553.507 320.42 551.398 325.842C549.29 331.163 548.235 337.188 548.235 343.915C548.235 345.421 548.286 347.128 548.386 349.036C548.587 350.944 548.838 352.902 549.139 354.91C549.541 356.818 549.993 358.675 550.495 360.483C550.997 362.29 551.649 363.897 552.453 365.303L600.348 301.743ZM718.279 426H677.161V264.692H687.102L700.657 283.82C707.284 277.796 714.815 273.177 723.249 269.964C731.683 266.65 740.419 264.994 749.456 264.994H785.754V305.961H749.456C745.138 305.961 741.072 306.764 737.256 308.37C733.441 309.977 730.127 312.186 727.316 314.997C724.504 317.809 722.295 321.122 720.689 324.938C719.082 328.753 718.279 332.82 718.279 337.138V426ZM850.669 426L789.218 264.692H836.059L871.303 365.303L906.396 264.692H953.387L891.937 426H850.669ZM1120.42 426H1110.48L1094.51 403.86C1090.6 407.374 1086.43 410.688 1082.01 413.8C1077.69 416.813 1073.13 419.473 1068.31 421.783C1063.49 423.992 1058.52 425.749 1053.4 427.054C1048.37 428.36 1043.25 429.012 1038.03 429.012C1026.69 429.012 1015.99 427.105 1005.95 423.289C996.011 419.473 987.276 413.951 979.745 406.721C972.315 399.392 966.441 390.455 962.123 379.912C957.805 369.369 955.647 357.37 955.647 343.915C955.647 331.364 957.805 319.867 962.123 309.425C966.441 298.882 972.315 289.845 979.745 282.314C987.276 274.783 996.011 268.96 1005.95 264.843C1015.99 260.626 1026.69 258.517 1038.03 258.517C1043.25 258.517 1048.42 259.17 1053.55 260.475C1058.67 261.78 1063.64 263.588 1068.46 265.897C1073.28 268.207 1077.84 270.918 1082.16 274.03C1086.58 277.143 1090.7 280.507 1094.51 284.122L1110.48 264.994H1120.42V426ZM1079 343.915C1079 338.292 1077.9 332.87 1075.69 327.649C1073.58 322.327 1070.67 317.658 1066.95 313.642C1063.24 309.525 1058.87 306.262 1053.85 303.852C1048.93 301.342 1043.66 300.087 1038.03 300.087C1032.41 300.087 1027.09 301.04 1022.07 302.948C1017.15 304.856 1012.83 307.668 1009.11 311.383C1005.5 315.098 1002.64 319.717 1000.53 325.239C998.421 330.661 997.367 336.887 997.367 343.915C997.367 350.944 998.421 357.22 1000.53 362.742C1002.64 368.164 1005.5 372.733 1009.11 376.448C1012.83 380.163 1017.15 382.975 1022.07 384.882C1027.09 386.79 1032.41 387.744 1038.03 387.744C1043.66 387.744 1048.93 386.539 1053.85 384.129C1058.87 381.619 1063.24 378.356 1066.95 374.339C1070.67 370.223 1073.58 365.554 1075.69 360.332C1077.9 355.011 1079 349.538 1079 343.915Z" fill="black"/>
<path d="M1167.58 59.1869C1205.33 134.661 1273.04 262.516 1270.04 264.018C1198.05 300.028 1022.93 214.147 985.18 138.673C960.024 74.0928 1031.12 217.93 1115.23 175.136C1199.33 132.342 1133.61 -1.70965 1167.58 59.1869Z" fill="black"/>
<circle cx="1076.12" cy="99.2374" r="90.0487" stroke="black" stroke-width="18.3773"/>
<mask id="path-4-inside-1_140_40" fill="white">
<path d="M1082.24 110.876C1082.24 101.143 1080.33 91.5041 1076.6 82.5112C1072.88 73.5184 1067.42 65.3472 1060.53 58.4644C1053.65 51.5816 1045.48 46.1218 1036.49 42.3968C1027.49 38.6719 1017.86 36.7546 1008.12 36.7546L1008.12 53.2849C1015.68 53.2849 1023.17 54.7746 1030.16 57.6688C1037.15 60.5631 1043.5 64.8052 1048.85 70.1531C1054.19 75.5009 1058.44 81.8498 1061.33 88.8371C1064.22 95.8244 1065.71 103.313 1065.71 110.876H1082.24Z"/>
</mask>
<path d="M1082.24 110.876C1082.24 101.143 1080.33 91.5041 1076.6 82.5112C1072.88 73.5184 1067.42 65.3472 1060.53 58.4644C1053.65 51.5816 1045.48 46.1218 1036.49 42.3968C1027.49 38.6719 1017.86 36.7546 1008.12 36.7546L1008.12 53.2849C1015.68 53.2849 1023.17 54.7746 1030.16 57.6688C1037.15 60.5631 1043.5 64.8052 1048.85 70.1531C1054.19 75.5009 1058.44 81.8498 1061.33 88.8371C1064.22 95.8244 1065.71 103.313 1065.71 110.876H1082.24Z" stroke="black" stroke-width="36.7546" mask="url(#path-4-inside-1_140_40)"/>
<mask id="path-5-inside-2_140_40" fill="white">
<path d="M1069.99 110.876C1069.99 101.143 1071.91 91.5041 1075.63 82.5112C1079.36 73.5184 1084.82 65.3472 1091.7 58.4644C1098.58 51.5816 1106.76 46.1218 1115.75 42.3968C1124.74 38.6719 1134.38 36.7546 1144.11 36.7546L1144.11 53.2849C1136.55 53.2849 1129.06 54.7746 1122.07 57.6688C1115.09 60.5631 1108.74 64.8052 1103.39 70.1531C1098.04 75.5009 1093.8 81.8498 1090.91 88.8371C1088.01 95.8244 1086.52 103.313 1086.52 110.876H1069.99Z"/>
</mask>
<path d="M1069.99 110.876C1069.99 101.143 1071.91 91.5041 1075.63 82.5112C1079.36 73.5184 1084.82 65.3472 1091.7 58.4644C1098.58 51.5816 1106.76 46.1218 1115.75 42.3968C1124.74 38.6719 1134.38 36.7546 1144.11 36.7546L1144.11 53.2849C1136.55 53.2849 1129.06 54.7746 1122.07 57.6688C1115.09 60.5631 1108.74 64.8052 1103.39 70.1531C1098.04 75.5009 1093.8 81.8498 1090.91 88.8371C1088.01 95.8244 1086.52 103.313 1086.52 110.876H1069.99Z" stroke="black" stroke-width="36.7546" mask="url(#path-5-inside-2_140_40)"/>
<path d="M1086.55 110.02C1086.55 111.628 1086.28 113.221 1085.76 114.707C1085.23 116.193 1084.47 117.544 1083.5 118.681C1082.53 119.819 1081.39 120.721 1080.12 121.337C1078.86 121.952 1076.14 123.044 1076.14 123.044C1076.14 123.044 1073.42 121.952 1072.15 121.337C1070.89 120.721 1069.74 119.819 1068.78 118.681C1067.81 117.544 1067.04 116.193 1066.52 114.707C1065.99 113.221 1065.73 111.628 1065.73 110.02L1076.14 110.02H1086.55Z" fill="black"/>
<ellipse cx="1027.91" cy="93.8205" rx="16.3451" ry="16.2507" fill="black"/>
<ellipse cx="1124.34" cy="93.8205" rx="16.3451" ry="16.2507" fill="black"/>
</svg>
